:SAMPLES-PER-SECOND 25
:FULLY-SPECIFIED
:DEGREES
395
root  13.7228 54.6358 -28.7446 0.464397 -5.72306 3.55833
RightUpLeg  -25.171 -1.19383 -3.71047
RightLeg  77.8264 1.73693 7.98025
RightFoot  -1.26002 0.531739 -6.17437
RightToes  2.84633e-005 7.89722e-005 -0.000426369
Spine  3.45143 -0.492109 -2.94547
Spine1  6.78078 -1.31953 -3.33334
HEad  10.1796 -3.27904 0.167083
LeftShoulder1  -3.88251e-019 0 -3.92111e-022
LeftArm  -33.9791 -2.46076 -80.6035
LeftForeArm  32.3031 1.90818 2.25295
LeftHand  -0.688773 -3.95826 8.81687
RightShoulder  7.45443e-017 -2.42657e-020 1.96277e-018
RightArm  -27.586 -18.4306 74.1751
RightForeArm  24.4582 8.23818 7.84136
RightHand  -1.15449 9.41399 -9.40585
LeftUpLeg  -28.5562 1.54621 -9.73196
LeftLeg  47.2509 -1.90532 -1.76744
LeftFoot  -15.4092 0.226052 3.7579
LeftToes  3.91355e-005 3.11907e-005 -4.10385e-006
396
root  13.6104 55.3132 -27.8631 0.182694 -5.0032 3.28778
RightUpLeg  -32.9225 -0.836416 -2.92194
RightLeg  88.3717 0.239717 8.15027
RightFoot  -10.6968 -0.0277862 -7.86246
RightToes  2.84633e-005 7.89722e-005 -0.000426369
Spine  3.43904 -0.714107 -3.71414
Spine1  6.73783 -1.82535 -3.34126
HEad  11.158 -3.43876 -0.0544962
LeftShoulder1  -3.88251e-019 0 -3.92111e-022
LeftArm  -33.144 -5.83615 -80.524
LeftForeArm  32.2057 1.94801 1.64324
LeftHand  -0.678753 -3.97223 8.6808
RightShoulder  7.45443e-017 -2.42657e-020 1.96277e-018
RightArm  -27.5323 -19.5452 73.6906
RightForeArm  23.8937 8.68105 7.95607
RightHand  -1.09408 8.93985 -9.21088
LeftUpLeg  -24.3212 0.20489 -9.3899
LeftLeg  43.0019 -1.15149 -0.731154
LeftFoot  -15.4096 0.239537 4.13522
LeftToes  3.91355e-005 3.11907e-005 -4.10385e-006
397
root  13.4812 55.9597 -26.9613 -0.488389 -4.56754 2.87473
RightUpLeg  -39.672 -0.248802 -1.94092
RightLeg  94.5911 -0.69548 8.68517
RightFoot  -18.6073 -0.600293 -7.48772
RightToes  2.84633e-005 7.89722e-005 -0.000426369
Spine  3.58125 -0.762988 -4.1713
Spine1  7.08521 -1.87918 -3.06513
HEad  11.364 -3.68133 -0.255684
LeftShoulder1  -3.88251e-019 0 -3.92111e-022
LeftArm  -32.1892 -8.90823 -80.7985
LeftForeArm  30.9796 2.11128 0.497027
LeftHand  -0.704806 -4.29924 8.71763
RightShoulder  7.45443e-017 -2.42657e-020 1.96277e-018
RightArm  -27.9441 -19.4781 73.134
RightForeArm  26.0162 7.85827 7.38011
RightHand  -1.03107 8.89004 -8.73343
LeftUpLeg  -19.6612 -0.380309 -8.79994
LeftLeg  38.6353 -0.967928 -0.423197
LeftFoot  -15.0014 0.232858 4.46443
LeftToes  3.91355e-005 3.11907e-005 -4.10385e-006
398
root  13.342 56.5539 -26.0346 -1.07732 -4.21955 2.12713
RightUpLeg  -45.7964 -0.140002 -0.484488
RightLeg  96.6044 -0.9138 8.06442
RightFoot  -23.4105 -0.878287 -6.78208
RightToes  2.84633e-005 7.89722e-005 -0.000426369
Spine  3.65356 -0.770662 -4.26483
Spine1  7.37049 -1.70584 -2.53645
HEad  11.3843 -3.96804 -0.282016
LeftShoulder1  -3.88251e-019 0 -3.92111e-022
LeftArm  -31.057 -11.4046 -81.1313
LeftForeArm  30.0776 0.742366 -1.07952
LeftHand  -0.742893 -4.45175 9.03932
RightShoulder  7.45443e-017 -2.42657e-020 1.96277e-018
RightArm  -28.0852 -18.8733 72.7768
RightForeArm  27.5757 6.53729 6.48524
RightHand  -1.01436 8.99963 -8.53704
LeftUpLeg  -15.0001 -0.301999 -7.80699
LeftLeg  34.1549 -1.51144 -0.716875
LeftFoot  -14.498 0.224936 4.99166
LeftToes  3.91355e-005 3.11907e-005 -4.10385e-006
399
root  13.2132 57.0446 -25.1146 -1.29604 -3.52859 0.961189
RightUpLeg  -51.1938 -0.915233 1.63418
RightLeg  94.5538 -0.579205 7.7293
RightFoot  -25.7874 -0.986045 -6.39667
RightToes  2.84633e-005 7.89722e-005 -0.000426369
Spine  3.59141 -0.955874 -3.90986
Spine1  7.42591 -1.75862 -1.67549
HEad  11.3301 -4.20409 -0.353362
LeftShoulder1  -3.88251e-019 0 -3.92111e-022
LeftArm  -30.0964 -13.2117 -81.6232
LeftForeArm  30.3316 -3.26288 -2.81108
LeftHand  -0.779286 -4.48197 9.43903
RightShoulder  7.45443e-017 -2.42657e-020 1.96277e-018
RightArm  -27.914 -18.2435 72.4512
RightForeArm  28.2338 5.76883 6.00034
RightHand  -1.01556 8.84964 -8.63322
LeftUpLeg  -10.9925 -0.858457 -6.5517
LeftLeg  30.061 -1.56489 -0.613775
LeftFoot  -14.1104 0.233166 6.12764
LeftToes  3.91355e-005 3.11907e-005 -4.10385e-006
400
root  13.081 57.4189 -24.2419 -1.35351 -2.54494 -0.579343
RightUpLeg  -55.1583 -2.07153 4.34793
RightLeg  89.24 0.141115 7.36684
RightFoot  -26.1607 -0.896127 -5.52165
RightToes  2.84633e-005 7.89722e-005 -0.000426369
Spine  3.58357 -1.24933 -3.08263
Spine1  7.56849 -2.02815 -0.420837
HEad  10.9353 -4.51381 -0.616859
LeftShoulder1  -3.88251e-019 0 -3.92111e-022
LeftArm  -29.4545 -14.6977 -82.6591
LeftForeArm  30.5101 -6.66074 -3.9471
LeftHand  -0.812625 -4.6148 9.70606
RightShoulder  7.45443e-017 -2.42657e-020 1.96277e-018
RightArm  -27.6664 -17.6334 71.8943
RightForeArm  28.4171 5.89927 6.01981
RightHand  -1.14983 8.95781 -9.64713
LeftUpLeg  -7.75153 -1.86462 -4.89766
LeftLeg  26.7889 -1.54609 -0.489984
LeftFoot  -13.1785 0.19451 7.19731
LeftToes  3.91355e-005 3.11907e-005 -4.10385e-006
401
root  12.9086 57.6911 -23.4035 -1.23994 -1.61636 -2.32683
RightUpLeg  -57.5443 -2.97136 7.29617
RightLeg  82.5025 0.807494 5.47633
RightFoot  -25.4301 -0.815071 -5.19779
RightToes  2.84633e-005 7.89722e-005 -0.000426369
Spine  3.64987 -1.48648 -1.9807
Spine1  7.79748 -2.29242 1.07607
HEad  10.2841 -4.81244 -0.993846
LeftShoulder1  -3.88251e-019 0 -3.92111e-022
LeftArm  -28.9761 -15.8904 -84.1972
LeftForeArm  29.6016 -8.55662 -4.35954
LeftHand  -0.847094 -4.6167 10.1019
RightShoulder  7.45443e-017 -2.42657e-020 1.96277e-018
RightArm  -27.3578 -17.0413 71.0556
RightForeArm  27.9179 6.73896 6.42846
RightHand  -1.35168 9.511 -10.8678
LeftUpLeg  -5.29309 -1.85942 -2.62482
LeftLeg  24.4774 -2.86088 -1.06942
LeftFoot  -12.2169 0.131116 7.5195
LeftToes  3.91355e-005 3.11907e-005 -4.10385e-006
402
root  12.7093 57.8988 -22.5356 -0.73578 -0.662629 -3.90392
RightUpLeg  -58.4054 -3.39488 9.63849
RightLeg  75.9147 1.1348 3.99527
RightFoot  -24.3109 -0.80008 -5.58516
RightToes  2.84633e-005 7.89722e-005 -0.000426369
Spine  3.60327 -1.77122 -0.920311
Spine1  7.73091 -2.77065 2.50545
HEad  9.6076 -4.74878 -1.40524
LeftShoulder1  -3.88251e-019 0 -3.92111e-022
LeftArm  -28.6922 -16.3477 -85.8012
LeftForeArm  28.6048 -8.76253 -4.2689
LeftHand  -0.883946 -4.45484 10.6898
RightShoulder  7.45443e-017 -2.42657e-020 1.96277e-018
RightArm  -27.0044 -16.3848 70.1383
RightForeArm  26.8714 7.78889 6.97662
RightHand  -1.40326 9.84278 -11.0333
LeftUpLeg  -3.5742 -1.21323 -0.387684
LeftLeg  22.733 -4.3426 -1.64707
LeftFoot  -11.9248 0.111872 7.89667
LeftToes  3.91355e-005 3.11907e-005 -4.10385e-006
